<?xml version="1.0" encoding="utf-8"?>
<!-- Generator: Adobe Illustrator 25.2.0, SVG Export Plug-In . SVG Version: 6.00 Build 0)  -->
<svg version="1.1" id="Layer_1" xmlns="http://www.w3.org/2000/svg" xmlns:xlink="http://www.w3.org/1999/xlink" x="0px" y="0px"
	 viewBox="0 0 2500 819" style="enable-background:new 0 0 2500 819;" xml:space="preserve">
<style type="text/css">
	.st0{fill:#FFFFFF;}
</style>
<g>
	<path class="st0" d="M960,714.3c-93-59.9-219.3-70.4-422.9-14c-217.1,51-289.4,83.7-384.5,18.1c-36.5-32.2-49.6-84.2-39.8-158.9
		c22.7-121.9,83.9-239.2,192.8-369.4C366.4,122.4,422.7,64.3,497.1,41c57-14.6,51.7,30.2,44.8,36.6c-7.3,0-19.5,1.1-29,7.3
		c-7.7,5.9-28.7,25.2-29.9,51c-1.6,39.6,39.3,31.3,57,9.6c19-24.5,47.2-71.4,25-115c-9.3-15.5-25.3-26.3-45.2-30
		C451.8-3.4,388.3,29.1,329.8,65C201.7,154,99.2,277.2,41.3,412.2c-33.4,81.4-63.6,198-18.3,293C58,771,130.8,806,217.6,798.7
		c60.9-6.4,134.5-26.1,184-38c49.5-11.9,303-99,386.3,52.6c0,0,27.7-53.8,96.9-54.9c56.9-5.2,139,16.5,198.8,60.4
		C1063.6,788.9,1007.1,744.7,960,714.3z"/>
	<path class="st0" d="M563,205.4c-47.4-31.1-142.7,28.4-219,130.4c-69.8,91.5-99.9,197.8-67.1,247c48.8,57.9,139.3-26.3,177.9-71.3
		l5-5.3c26.2-28.1,46.4-62,66-94.5c0,0,18-29.7,18.9-31.1c11.1-2,24.5-5.3,39.6-9.6c-0.2,0.7-57.8,97.4-51.9,145.4
		c1.8,14.7,0.4,68.2,52.7,84.4c69.6,11.7,125.2-42.3,174.3-90.3c0,0,8.4-8,13.1-12.6c-1.2,4.8-2.8,11.2-2.8,11.2
		c-20.4,70.9,7.1,85.8,24.3,91.3c52,15.1,114-60.4,114.2-60.4c-1.6,23.8-6.3,43.4,18.7,59.2c23.7,8.5,47.6-4.4,65.8-16.6
		c65.5-46.2,118.4-118.5,161-181h-27.2c-0.3,0-67.1,96.8-110.5,117.9c-0.1,0-8,4.1-12.5,0.8c-5.6-4.8-3.4-14.8,0.1-21.9
		c0.2-0.5,167.5-290.6,167.5-290.6h-79c0,0-8.6,14-9.3,14.9c-0.5-0.5-1.8-2.9-2.7-4c-48.9-67.7-159.8,36.4-243.2,157.2
		c-32.1,46.4-73,98.7-115.4,136.4c0,0-62.8,57.6-89.7,16.2c-9.8-17.4-6.8-42.8-1.3-59.5c31.3-89,85.1-169.7,146.4-218.4
		c17.3-13.5,36.1-17.4,45.4-11.7c8.9,5.3,10.3,18.3,4.7,27.2c-14.3-0.5-25.7,3.9-35,13.5c-18.3,19.2-24.7,37.7-18.9,55.1
		c28.3,40.2,84.7-39.3,82-87.8c-1-17.4-10.2-33.8-24.1-41.9c-20.6-12.3-52.1-9.1-72.5,0.7c-27.3,10.3-70.4,46.2-95.6,74.1
		c-31.7,35-86.1,73.9-103.1,69.5C565.4,334.6,611.3,240.6,563,205.4L563,205.4z M943.8,344.5c15.4-21.3,60.1-78.2,71-87.8
		c36.7-32.3,51.3-18.1,52.6-8c-34.2,61.3-74.6,131.5-112.6,194.6c0.1-0.2-11.9,18.1-11.9,18.1c-16.8,25.6-33.7,47.6-61.2,62.9
		c-3.9,1.2-10.4,1.6-14.7-1.6c-5.2-3.4-7.2-9.1-6.6-15.1C862,487.9,882,427.7,943.8,344.5L943.8,344.5z M514.1,381.3
		c0,0-0.7,2.1-1,2.7c-0.1,0-34.4,56-34.4,56c-20.7,27.7-46.6,62.4-79,79.1c-9.6,3.2-22.8,5.3-29.6-3.2c-14.3-17.2-6.9-40.9-0.9-60.1
		l2.1-6.9c17.2-46.6,44.5-87.8,71-126c0.3-0.2,1.1-0.5,1.3-0.5c0.1,0.2,0.2,0.2,0.2,0.7c16.7,32,47.9,46.9,71.3,53.7
		c0.1,0,0.3,0.2,0.3,0.7C515.4,378.3,515,379.2,514.1,381.3L514.1,381.3z M546.7,315.2c-0.2,0.5-15.3,35.2-15.3,35.2
		c-2.2,1.8-5.7,0.9-9.6,0l-6.8-1.1c-21.4-6.6-37.5-20.8-42.4-37.7c-6.8-32.9,21.3-58.8,33.7-68.2c11.9-8.2,30.4-12.6,41.1-4.1
		c6.6,7.8,9.1,17.8,9.1,28.8C556.4,283,551.9,299.7,546.7,315.2z M1545.2,421.3c-7.6-16.5-25.7-27-45-25.8
		c-62.6,5.7-123.8,57.2-155.9,131c-16.9,38-26.1,69.3-32.1,119.2c19.5-22.4,59.1-59.2,104.2-79.4c0,0,6.1-47.8,37.4-90.3
		c11.8-17.6,35.5-46,62.1-38.4c23.2,7.8,15.1,72-15.8,134.2c-22.8,45.7-57.8,91.5-93.1,123.1c-31.3,26.5-77.5,58.5-117.9,33.9
		c-25.5-15.1-38.5-46.7-35.7-87.4c12.2-115.5,64.8-213.8,140-325.9c77.6-104.1,163.1-210.9,278.3-267.8
		c23.5-11.9,45.3-14.6,64.1-7.3c0,0-108.1,59.5-159.7,169.5c-13.1,27.9-31.4,65.6-13,99c9.6,17.4,26.6,18.8,40.4,17.8
		c63.2-14.6,104-73.6,137.4-127.6c19.3-40.9,36.5-81.6,36.5-126.9c0-5.5-0.3-12.8-0.7-18.3c30.2-16,92.1,12.3,92.1,12.3
		c48.4,16,151.4,94.9,186.1,110c16.9-19.7,44.8-49.4,60.5-64.3l-22.7-14c-36.3-22.2-74.8-43.2-112.6-64
		C1894-13,1824.1,3.5,1788.5,16.3c-14,5-26.8,9.4-26.8,9.4C1735.3-3.1,1692-0.4,1660.1,7.4c-114.7,32.9-221.3,113.2-335.5,252.5
		c-84,109.1-136,203.3-163.8,296.4c-21.4,62.7-27.9,154.8,24.3,209.5c44.4,46.4,103.3,36.4,144.9,19.7
		c90.1-44.4,171.1-140,211.4-250C1551.2,502.7,1562,456.5,1545.2,421.3L1545.2,421.3z M1752.4,76.7
		c-11.9,136.8-118.2,217-144.5,223.4c-15.9,3.2-43.1-3.9-18.9-61.3c35.8-77.3,96.8-142.9,162.3-176.6
		C1752.9,68,1752.8,71.6,1752.4,76.7L1752.4,76.7z M2383,94c-57.2,32.5-116.5,53.5-188.2,46.2c-19.9,22.4-39.2,45.5-57.1,69.3
		c100.7,25.6,207.5-31.3,267-85.5c63-54.7,95.3-123.5,95.3-123.5S2452.8,54.5,2383,94z M1302.3,207.9h-75l-42.3,68.7h75
		L1302.3,207.9z"/>
	<path class="st0" d="M2194.5,720.7c-8.1,5.5-19.4,1.3-15.2-11.3c10.6-32,52.5-97.3,52.5-97.3l116.9-207.3h-80
		c-3.8,6.2-11.9,20.6-11.9,20.6c-3.7-6.2-14.8-19.9-19.3-22.8c-19.6-12.4-48.2-6.5-68,4.7c-86.1,50.3-148.8,149.7-198.4,227.3
		c0,0-52.1,86.2-81.1,92.6c-22.6,1.8-20.3-28.6-19.3-35.7c8.7-51.2,29-99.9,49.5-144.1c41.6-28.8,89-66.6,132.1-107.9
		c93.6-89.4,172.4-190.7,184-213.4c0,0-12.5,2.5-27.2,3c-72,100.4-219.3,246.3-263.9,268c19.8-47.6,147.6-274.7,256.3-383.3
		l17.1-16.5c26.5-25.8,53.9-52.4,75.3-56.7c2.3-0.2,5.2,0,7.7,5.3c1,20.1-6.5,35-15.1,51.9l-12,24.7c0,0,17.1-3.2,28.3-6.9
		c13-24.5,27.4-51.9,22.1-84.6c-1.8-10.5-9.4-18.5-19.3-20.4c-32.4-6.2-67.8,17.8-96.3,37.3l-1.1,0.7
		c-146.3,114.6-269.8,279.7-377.7,505.2c-7.8,5.9-38.1,13-43.2,9.6c10.7-22,24.1-51.5,30.8-83.5c1.2-9.2,2.2-18.5,2.2-27.7
		c0-19.7-4.7-38.2-22.4-51c-20.7-10.3-46.2-5.5-63.5,2.3c-77.2,32-134.9,111.2-176.5,176.3c-22.4,41.4-44.7,85.8-50.9,136.5
		c-4.4,39.8,4.5,65.4,27.1,78.2c23.3,11.9,52.5-0.5,64-6.4c78.2-41.2,132.8-123.7,175.9-199.2c1.7-0.2,25.2-0.9,43-5.5
		c0.2,0,0.3,0,0.7,0.2c-1,3.4-10.2,30.9-10.2,30.9c-27.3,80-39.9,134.5-14.1,166.7c36.8,45.5,97.8-1.6,147.5-63.8
		c-10.7,74.6,28,86.2,57.4,80.5c33.8-9.1,71.5-45.3,89-63.8c-5.6,21.7-4.1,60.6,26.7,64.5c21.1,3.9,36.9-7.6,55.1-17.4
		c65.5-35.7,144-154.6,164.3-189h-26.7C2277.6,636.1,2240.8,693.4,2194.5,720.7L2194.5,720.7z M1606.3,712.7
		c-4.2-6.2-5.5-12.9-5.7-20.2c-0.8-44.8,47.5-125.2,81.5-168.9h0.1c14.3,31.2,46.6,51.3,66.1,59.8
		C1724.1,637.3,1641,752.9,1606.3,712.7L1606.3,712.7z M1762,559.2c-2.3,1.6-43.1-12.1-50.9-49.9c-6.7-32.5,15.7-57.9,37.3-70.7
		c9.3-7.3,23.3-9.8,33.6-6.2c9.5,6.4,12.1,17.9,12.1,30.2c0,7.6-1,15.3-1.9,22.4l-0.2,1.6C1785.1,512.1,1775,536.5,1762,559.2
		L1762,559.2z M2088.8,698.3c0,0-7.7,6.9-7.7,6.9c-11,9.8-22.3,20.3-36,15.1c-3.8-1.4-6.4-6.4-7.1-10.3c-0.6-28.1,12-54.2,24.3-79.6
		l3.1-6.6c35.3-59,76.4-128.5,136.7-176.8c10.2-7.3,21.2-13.5,32.8-8.7c2.7,2.5,5.8,6.9,5.8,11.2c0,1.4-1.2,5-1.9,6.2
		c-16.9,27.2-32.9,55.8-48.5,83.3C2160,593.1,2128.4,649.1,2088.8,698.3z"/>
</g>
</svg>
