<?xml version="1.0" encoding="utf-8"?>
<!-- Generator: Adobe Illustrator 25.2.3, SVG Export Plug-In . SVG Version: 6.00 Build 0)  -->
<svg version="1.1" id="Layer_1" xmlns="http://www.w3.org/2000/svg" xmlns:xlink="http://www.w3.org/1999/xlink" x="0px" y="0px"
	 viewBox="0 0 700 700" style="enable-background:new 0 0 700 700;" xml:space="preserve">
<style type="text/css">
	.st0{fill:#FFFFFF;}
	.st1{fill:url(#Trazado_169_1_);}
</style>
<g id="LOGO_FOOTER" transform="translate(-221.945 -4892.005)">
	<g id="Grupo_43" transform="translate(265.336 4980.005)">
		<g id="Grupo_38" transform="translate(0 0.168)">
			<path id="Trazado_164" class="st0" d="M149.53,238.63v16.33h34.16v15.03h-34.16v29.31h-15.75v-75.7h54.51v15.03L149.53,238.63z"
				/>
		</g>
		<g id="Grupo_39" transform="translate(21.981 0.168)">
			<path id="Trazado_165" class="st0" d="M222.35,299.29l-15.34-24.22h-12.37v24.22h-15.75v-75.7h32.72
				c7.17-0.46,14.25,1.88,19.89,6.6c4.86,4.69,7.47,11.45,7.11,18.4v0.21c0.23,5.36-1.27,10.64-4.25,14.98
				c-2.86,3.89-6.71,6.83-11.09,8.49l17.49,27.03L222.35,299.29z M222.66,249.44c0.21-3.1-1.01-6.12-3.27-8.11
				c-2.66-1.95-5.87-2.9-9.1-2.7h-15.65v21.73h15.95c3.22,0.23,6.41-0.8,8.95-2.9c2.09-1.97,3.23-4.83,3.12-7.79L222.66,249.44z"/>
		</g>
		<g id="Grupo_40" transform="translate(44.197 0)">
			<path id="Trazado_166" class="st0" d="M283.89,299.46l-6.54-16.98h-30.27l-6.55,16.98h-16.06l30.68-76.24h14.52l30.68,76.24
				H283.89z M262.22,243.22l-9.51,24.55h19.02L262.22,243.22z"/>
		</g>
		<g id="Grupo_41" transform="translate(72.679 0.168)">
			<path id="Trazado_167" class="st0" d="M338.96,299.29v-49.42l-20.14,32.33h-0.41l-19.94-32.01v49.1h-15.54v-75.7h16.98
				l18.81,32.01l18.81-32.01h16.98v75.7L338.96,299.29z"/>
		</g>
		<g id="Grupo_42" transform="translate(101.763 0.168)">
			<path id="Trazado_168" class="st0" d="M342.58,299.29v-75.7h53.89v14.82h-38.33v15.35h33.75v14.82h-33.75v15.9h38.86v14.82
				H342.58z"/>
		</g>
	</g>
	<g id="Grupo_44" transform="translate(221.945 4892.005)">
		
			<linearGradient id="Trazado_169_1_" gradientUnits="userSpaceOnUse" x1="-413.1895" y1="744.1276" x2="-410.1377" y2="744.1276" gradientTransform="matrix(200.039 0 0 -200.0439 82698.7734 149208.2188)">
			<stop  offset="0" style="stop-color:#FFFFFF"/>
			<stop  offset="0" style="stop-color:#EEF7EC"/>
			<stop  offset="0" style="stop-color:#CEE9C7"/>
			<stop  offset="0" style="stop-color:#B2DDA7"/>
			<stop  offset="0" style="stop-color:#9AD28C"/>
			<stop  offset="0" style="stop-color:#87CA76"/>
			<stop  offset="0" style="stop-color:#78C365"/>
			<stop  offset="0" style="stop-color:#6EBF59"/>
			<stop  offset="0" style="stop-color:#68BC52"/>
			<stop  offset="0" style="stop-color:#67BC51"/>
			<stop  offset="0" style="stop-color:#6FCBDC"/>
			<stop  offset="0.08" style="stop-color:#7FCEC2"/>
			<stop  offset="0.252" style="stop-color:#ABD981"/>
			<stop  offset="0.499" style="stop-color:#F0E91A"/>
			<stop  offset="0.512" style="stop-color:#F4EA15"/>
			<stop  offset="1" style="stop-color:#EA2B7B"/>
		</linearGradient>
		<path id="Trazado_169" class="st1" d="M655.25,672.79H44.75V27.21h610.49V672.79z M50.58,666.63h598.84V33.39H50.58L50.58,666.63z
			"/>
	</g>
</g>
</svg>
