<?xml version="1.0" encoding="utf-8"?>
<!-- Generator: Adobe Illustrator 25.2.0, SVG Export Plug-In . SVG Version: 6.00 Build 0)  -->
<svg version="1.1" id="Layer_1" xmlns="http://www.w3.org/2000/svg" xmlns:xlink="http://www.w3.org/1999/xlink" x="0px" y="0px"
	 viewBox="0 0 102 102" style="enable-background:new 0 0 102 102;" xml:space="preserve">
<style type="text/css">
	.st0{fill:url(#SVGID_1_);}
	.st1{fill:#FFFFFF;}
</style>
<radialGradient id="SVGID_1_" cx="13.551" cy="1.518" r="133.147" gradientTransform="matrix(1 0 0 -1 0 104)" gradientUnits="userSpaceOnUse">
	<stop  offset="9.000000e-02" style="stop-color:#FA8F21"/>
	<stop  offset="0.78" style="stop-color:#D82D7E"/>
</radialGradient>
<path class="st0" d="M34,51c0-9.4,7.6-17,17-17s17,7.6,17,17s-7.6,17-17,17S34,60.4,34,51L34,51 M24.8,51
	c0,14.5,11.7,26.2,26.2,26.2S77.2,65.5,77.2,51c0-14.5-11.7-26.2-26.2-26.2C36.5,24.8,24.8,36.5,24.8,51C24.8,51,24.8,51,24.8,51
	 M72.1,23.8c0,3.4,2.7,6.1,6.1,6.1c3.4,0,6.1-2.7,6.1-6.1s-2.7-6.1-6.1-6.1l0,0C74.8,17.7,72.1,20.4,72.1,23.8 M30.4,92.5
	c-3.2,0-6.4-0.6-9.5-1.8c-2.2-0.8-4.2-2.1-5.9-3.8c-1.7-1.6-3-3.6-3.8-5.9c-1.1-3-1.7-6.2-1.8-9.5c-0.2-5.4-0.3-7-0.3-20.6
	s0.1-15.2,0.3-20.6c0-3.2,0.6-6.4,1.8-9.5c0.8-2.2,2.1-4.2,3.8-5.9c1.6-1.7,3.6-3,5.9-3.8c3-1.1,6.2-1.7,9.5-1.8
	c5.4-0.2,7-0.3,20.6-0.3s15.2,0.1,20.6,0.3c3.2,0,6.4,0.6,9.5,1.8c2.2,0.8,4.2,2.1,5.9,3.8c1.7,1.6,3,3.7,3.8,5.9
	c1.1,3,1.7,6.2,1.8,9.5c0.2,5.4,0.3,7,0.3,20.6s0,15.2-0.3,20.6c0,3.2-0.6,6.4-1.8,9.5c-1.7,4.4-5.2,8-9.7,9.7
	c-3,1.1-6.2,1.7-9.5,1.8c-5.4,0.2-7,0.3-20.6,0.3S35.8,92.8,30.4,92.5 M30,0.3c-4.2,0.1-8.4,0.9-12.4,2.4C14.2,4,11.1,6,8.6,8.6
	c-2.6,2.5-4.6,5.6-5.9,9c-1.5,4-2.3,8.1-2.4,12.4C0.1,35.4,0,37.2,0,51s0.1,15.6,0.3,21c0.1,4.2,0.9,8.4,2.4,12.4
	c1.3,3.4,3.3,6.5,5.9,9c2.5,2.6,5.6,4.6,9,5.9c4,1.5,8.1,2.3,12.4,2.4c5.4,0.2,7.2,0.3,21,0.3s15.6-0.1,21-0.3
	c4.2-0.1,8.4-0.9,12.4-2.4c6.9-2.6,12.3-8.1,14.9-14.9c1.5-4,2.3-8.1,2.4-12.4c0.2-5.4,0.3-7.2,0.3-21s-0.1-15.6-0.3-21
	c-0.1-4.2-0.9-8.4-2.4-12.4c-1.3-3.4-3.3-6.5-5.9-9c-2.5-2.6-5.6-4.6-9-5.9c-4-1.5-8.1-2.3-12.4-2.4C66.6,0.1,64.9,0,51,0
	S35.4,0.1,30,0.3"/>
<path class="st1" d="M34,51c0-9.4,7.6-17,17-17s17,7.6,17,17s-7.6,17-17,17S34,60.4,34,51L34,51 M24.8,51
	c0,14.5,11.7,26.2,26.2,26.2S77.2,65.5,77.2,51c0-14.5-11.7-26.2-26.2-26.2C36.5,24.8,24.8,36.5,24.8,51C24.8,51,24.8,51,24.8,51
	 M72.1,23.8c0,3.4,2.7,6.1,6.1,6.1c3.4,0,6.1-2.7,6.1-6.1s-2.7-6.1-6.1-6.1l0,0C74.8,17.7,72.1,20.4,72.1,23.8 M30.4,92.5
	c-3.2,0-6.4-0.6-9.5-1.8c-2.2-0.8-4.2-2.1-5.9-3.8c-1.7-1.6-3-3.6-3.8-5.9c-1.1-3-1.7-6.2-1.8-9.5c-0.2-5.4-0.3-7-0.3-20.6
	s0.1-15.2,0.3-20.6c0-3.2,0.6-6.4,1.8-9.5c0.8-2.2,2.1-4.2,3.8-5.9c1.6-1.7,3.6-3,5.9-3.8c3-1.1,6.2-1.7,9.5-1.8
	c5.4-0.2,7-0.3,20.6-0.3s15.2,0.1,20.6,0.3c3.2,0,6.4,0.6,9.5,1.8c2.2,0.8,4.2,2.1,5.9,3.8c1.7,1.6,3,3.7,3.8,5.9
	c1.1,3,1.7,6.2,1.8,9.5c0.2,5.4,0.3,7,0.3,20.6s0,15.2-0.3,20.6c0,3.2-0.6,6.4-1.8,9.5c-1.7,4.4-5.2,8-9.7,9.7
	c-3,1.1-6.2,1.7-9.5,1.8c-5.4,0.2-7,0.3-20.6,0.3S35.8,92.8,30.4,92.5 M30,0.3c-4.2,0.1-8.4,0.9-12.4,2.4C14.2,4,11.1,6,8.6,8.6
	c-2.6,2.5-4.6,5.6-5.9,9c-1.5,4-2.3,8.1-2.4,12.4C0.1,35.4,0,37.2,0,51s0.1,15.6,0.3,21c0.1,4.2,0.9,8.4,2.4,12.4
	c1.3,3.4,3.3,6.5,5.9,9c2.5,2.6,5.6,4.6,9,5.9c4,1.5,8.1,2.3,12.4,2.4c5.4,0.2,7.2,0.3,21,0.3s15.6-0.1,21-0.3
	c4.2-0.1,8.4-0.9,12.4-2.4c6.9-2.6,12.3-8.1,14.9-14.9c1.5-4,2.3-8.1,2.4-12.4c0.2-5.4,0.3-7.2,0.3-21s-0.1-15.6-0.3-21
	c-0.1-4.2-0.9-8.4-2.4-12.4c-1.3-3.4-3.3-6.5-5.9-9c-2.5-2.6-5.6-4.6-9-5.9c-4-1.5-8.1-2.3-12.4-2.4C66.6,0.1,64.9,0,51,0
	S35.4,0.1,30,0.3"/>
</svg>
