<svg xmlns="http://www.w3.org/2000/svg" width="34.444" height="34.563" viewBox="0 0 34.444 34.563"><defs><style>.a{fill:#fff;}</style></defs><path class="a" d="M811.369,571.1v-7.466a1.054,1.054,0,0,1,.079-.533,1.558,1.558,0,0,1,.553-.257l.355-.079V571.1h1.422V562.61h.908V571.1h1.422v-8.532h18.683a6.432,6.432,0,0,1,3.3.888,7,7,0,0,1,2.449,2.39,6.344,6.344,0,0,1,.968,3.239q.038.988.039,2.37-.04,2.924-.039,2.409H830.921a.679.679,0,0,1-.553-.237,9.1,9.1,0,0,0-3.911-2.133,8.527,8.527,0,0,0-4.345.021,9.255,9.255,0,0,0-3.911,2.153.569.569,0,0,1-.4.2H807.34l-.2-.039v-1.5q-.04.472-.04-1.818a17.539,17.539,0,0,1,.079-1.817,6.4,6.4,0,0,1,2.646-4.779l.158-.039V571.1h1.383Zm20.145,3.83h9.993v15.523a6.491,6.491,0,0,1-.908,3.358,6.674,6.674,0,0,1-2.449,2.429,6.6,6.6,0,0,1-3.358.889H813.857a6.234,6.234,0,0,1-3.357-.87,6.97,6.97,0,0,1-2.469-2.448,6.382,6.382,0,0,1-.928-3.357V574.974H817.1a8.693,8.693,0,0,0-1.106,7.979,8.978,8.978,0,0,0,7.09,5.787,8.916,8.916,0,0,0,3.772-.3,8.632,8.632,0,0,0,3.318-1.857,8.388,8.388,0,0,0,2.212-3.16,8.9,8.9,0,0,0,.672-4.107A9.569,9.569,0,0,0,831.514,574.935Zm-7.189,11.85a6.888,6.888,0,0,1-3.436-.889,6.532,6.532,0,0,1-2.489-2.448,6.8,6.8,0,0,1,0-6.793,6.827,6.827,0,0,1,2.489-2.489,6.631,6.631,0,0,1,3.417-.927,6.531,6.531,0,0,1,3.4.927,6.889,6.889,0,0,1,2.469,2.489,6.8,6.8,0,0,1,0,6.793A6.571,6.571,0,0,1,827.7,585.9,6.7,6.7,0,0,1,824.325,586.785Zm4.977-6.753a5.052,5.052,0,0,0-2.489-4.345,5.019,5.019,0,0,0-5.016,0,5.018,5.018,0,0,0-1.817,1.817,5.021,5.021,0,0,0,0,5.016,5.142,5.142,0,0,0,1.817,1.837,4.761,4.761,0,0,0,2.508.691,4.866,4.866,0,0,0,2.508-.673,5,5,0,0,0,1.817-1.817A4.9,4.9,0,0,0,829.3,580.032Zm9.085-11.653v-1.818a1.093,1.093,0,0,0-.3-.809,1.042,1.042,0,0,0-.77-.3q-1.818-.038-3.673,0a.993.993,0,0,0-.79.315,1.215,1.215,0,0,0-.276.83v3.635a1.089,1.089,0,0,0,.3.809,1.043,1.043,0,0,0,.77.3h3.634a1.025,1.025,0,0,0,1.106-1.106Z" transform="translate(-807.103 -562.572)"/></svg>