<?xml version="1.0" encoding="utf-8"?>
<!-- Generator: Adobe Illustrator 25.2.0, SVG Export Plug-In . SVG Version: 6.00 Build 0)  -->
<svg version="1.1" id="Layer_1" xmlns="http://www.w3.org/2000/svg" xmlns:xlink="http://www.w3.org/1999/xlink" x="0px" y="0px"
	 viewBox="0 0 512 512" style="enable-background:new 0 0 512 512;" xml:space="preserve">
<style type="text/css">
	.lego{stroke:#FFFFFF;}
	.lego{fill:#FFFFFF;}
</style>
<path class="lego" d="M486.8,153.6v-3.5h2.4c1.7,0,2.6,0.6,2.6,1.7c0,0.9-0.6,1.8-2.3,1.8H486.8z M495.3,160.9l-1.5-2.6c-1.3-2.2-1.6-2.6-2.7-3
	v-0.1c2.2-0.3,3.4-1.6,3.4-3.6c0-2-1.3-3.6-4-3.6h-6.3v12.7h2.6v-5.2h0.5c1.1,0,1.6,0.1,2.1,0.6c0.5,0.5,1.3,1.6,1.7,2.5l1,2.1
	L495.3,160.9L495.3,160.9z M489,144.6c5.5,0,9.9,4.4,9.9,9.8c0,5.4-4.4,9.9-9.9,9.9c-5.4,0-9.8-4.4-9.8-9.9
	C479.2,149,483.6,144.6,489,144.6z M489,142.2c-6.8,0-12.3,5.5-12.3,12.3c0,6.8,5.5,12.3,12.3,12.3c6.8,0,12.3-5.4,12.3-12.2
	c0,0,0,0,0-0.1C501.3,147.7,495.9,142.2,489,142.2C489.1,142.2,489.1,142.2,489,142.2L489,142.2z M422.3,155.3
	c-26.5,0-44.7,10.5-57.1,25.1c-2.1-4.4-3.7-6.3-5.9-8.8c-10.1-11.5-26.4-16.8-48.3-16.8c-21.4,0-39.2,6.7-51.5,17.2
	c-6.4-10.4-21.7-17.4-40.2-17.4c-24.1,0-50.4,3.4-66,28.5c-0.4-9-1.2-13.8-6.3-19.2c-6.2-6.5-16.2-8.2-25.9-8.2
	c-17.7,0-31.1,7.8-40.7,23.5c-13.9,22.3-47.7,95.5-47,131c0.5,22.9,15.9,39.4,43.4,40.1c21.5,0.5,38.4-5.2,49.1-16.1
	c9.6,10.5,24.3,16.6,41.9,16.6c19.6,0,39.3-5.9,50.9-18.7c9.8,12,25.2,19,45,18.9c25.9-0.1,48.7-12.4,63.6-31.3
	c8.2,22.2,28.8,31,51.4,31c49.5,0,71.3-34.1,89.4-87.9c4.1-12.1,9.5-32.4,10.4-49.4C480.1,185.3,468.1,155.3,422.3,155.3
	L422.3,155.3z M92.7,290.7c25.6-4.5,32.1,4.8,31.3,13.4c-2.4,25.7-26,31.4-46.4,30.9c-14.8-0.4-28.2-7.2-28.5-24.4
	c-0.7-30.1,30.1-99.9,44.6-123c6.7-11,14.8-16.4,27.8-16.4c12.3,0,15.4,6.3,15.2,13.9C136.1,205.4,103.4,266.8,92.7,290.7
	L92.7,290.7z M176.2,267.1c-1.7,4.6-4.9,14.2-7.5,24.4c8.4-2.1,14.7-3.6,25.5-3.3c12.3,0.3,20.2,5.4,20.2,15.6
	c0,24.7-27.3,31.9-46.2,31.9c-20.8,0-39-11.8-39-34.5c0-26.6,14.4-67,28-93.9c16.6-33,33.6-37.4,62.9-37.4
	c12.9,0,27.7,5.5,27.7,17.7c0,16.8-14.3,23.3-28.4,24.1c-6,0.3-15.3,0.7-20.9,0.3c0,0-4.7,7.2-9.7,20c26.2-3.7,37.3,2.3,32.9,17.4
	C215.6,269.6,197.9,270.9,176.2,267.1L176.2,267.1z M305,203.4c-7.1,0-11.7,4.5-15.2,9.3c-7.6,10.7-24,53.4-26.6,70.9
	c-1.8,12,3.4,14.5,9.1,14.5c9.1,0,19.3-9.6,22.8-25.5c0,0-17.3-0.4-12.6-15.8c4.6-14.9,13.4-18.1,28-18.7
	c28.8-1.2,25.9,20.1,23.6,31.4c-7.5,36.8-33.6,66.3-70.7,66.3c-25.3,0-41.1-14-41.1-39.9c0-18.4,9.1-47.3,16.4-64.2
	c15.4-36,31.6-61.2,72.8-61.2c24.7,0,44.2,8.9,41.3,32c-2.1,17-10.6,27-26,28.2c-4.3,0.3-22-0.1-16.1-16.8
	C312.9,208,313.7,203.4,305,203.4L305,203.4z M460.6,233.7c-4.4,21.7-14.1,47.3-24.8,66.4c-17.3,31.2-38.4,35.6-56.8,35.3
	c-18.4-0.2-39.1-7-39.3-35.4c-0.1-20.4,8.7-49.1,16.1-68c13-34.2,26.3-62,68.3-61.5C473.1,171.2,464.4,214.8,460.6,233.7
	L460.6,233.7z M419,204.1c-4.2-0.1-7.9,0.8-11.2,5.9c-7.4,9.6-29.1,68.8-28.7,80.6c0.1,4.2,2.5,8,7.7,8c6,0,9.3-4.1,12.3-9.1
	c6.8-11.5,26-63.9,26.5-76.9C425.8,208.6,425.2,204.1,419,204.1L419,204.1z"/>
</svg>
