<svg width="80" height="24" viewBox="0 0 590 124" fill="none" xmlns="http://www.w3.org/2000/svg">
<path d="M25.44 25.1577V51.5278H80.61V75.8076H25.44V123.148H0V0.87793H88.04V25.1577H25.44Z" fill="white"/>
<path d="M178.571 123.148L153.791 84.0177H133.801V123.148H108.361V0.878004H161.221C172.801 0.128004 184.241 3.91791 193.351 11.5279C201.201 19.1079 205.421 30.0179 204.831 41.2379V41.5777C205.191 50.2277 202.781 58.7577 197.971 65.7677C193.351 72.0477 187.131 76.7979 180.051 79.4879L208.301 123.158L178.571 123.148ZM179.061 42.628C179.391 37.618 177.431 32.7377 173.781 29.5177C169.481 26.3677 164.301 24.8278 159.081 25.1578H133.801V60.2579H159.571C164.771 60.6379 169.921 58.9579 174.021 55.5679C177.401 52.3879 179.241 47.7679 179.061 42.9879V42.628Z" fill="white"/>
<path d="M313.847 123.15L303.277 95.7197H254.387L243.817 123.15H217.887L267.437 0H290.897L340.457 123.15H313.847ZM278.847 32.3198L263.487 71.9697H294.207L278.847 32.3198Z" fill="white"/>
<path d="M448.809 123.148V43.3276L416.269 95.5576H415.609L383.399 43.8477V123.158H358.299V0.887695H385.719L416.109 52.5879L446.499 0.887695H473.919V123.158L448.809 123.148Z" fill="white"/>
<path d="M501.653 123.148V0.87793H588.703V24.8076H526.793V49.6079H581.303V73.5376H526.793V99.2178H589.563V123.148H501.653Z" fill="white"/>
</svg>
