<svg width="700" height="200" viewBox="0 0 700 200" fill="none" xmlns="http://www.w3.org/2000/svg">
<path d="M80.44 63.1577V89.5278H135.61V113.808H80.44V161.148H55V38.8779H143.04V63.1577H80.44Z" fill="white"/>
<path d="M233.571 161.148L208.791 122.018H188.801V161.148H163.361V38.878H216.221C227.801 38.128 239.241 41.9179 248.351 49.5279C256.201 57.1079 260.421 68.0179 259.831 79.2379V79.5777C260.191 88.2277 257.781 96.7577 252.971 103.768C248.351 110.048 242.131 114.798 235.051 117.488L263.301 161.158L233.571 161.148ZM234.061 80.628C234.391 75.618 232.431 70.7377 228.781 67.5177C224.481 64.3677 219.301 62.8278 214.081 63.1578H188.801V98.2579H214.571C219.771 98.6379 224.921 96.9579 229.021 93.5679C232.401 90.3879 234.241 85.7679 234.061 80.9879V80.628Z" fill="white"/>
<path d="M368.847 161.15L358.277 133.72H309.387L298.817 161.15H272.887L322.437 38H345.897L395.457 161.15H368.847ZM333.847 70.3198L318.487 109.97H349.207L333.847 70.3198Z" fill="white"/>
<path d="M503.809 161.148V81.3276L471.269 133.558H470.609L438.399 81.8477V161.158H413.299V38.8877H440.719L471.109 90.5879L501.499 38.8877H528.919V161.158L503.809 161.148Z" fill="white"/>
<path d="M556.653 161.148V38.8779H643.703V62.8076H581.793V87.6079H636.303V111.538H581.793V137.218H644.563V161.148H556.653V161.148Z" fill="white"/>
</svg>
