<?xml version="1.0" encoding="utf-8"?>
<!-- Generator: Adobe Illustrator 25.2.0, SVG Export Plug-In . SVG Version: 6.00 Build 0)  -->
<svg version="1.1"
	 id="svg4" inkscape:version="1.0.1 (3bc2e813f5, 2020-09-07)" sodipodi:docname="Logo_NIKE.svg" xmlns:cc="http://creativecommons.org/ns#" xmlns:dc="http://purl.org/dc/elements/1.1/" xmlns:inkscape="http://www.inkscape.org/namespaces/inkscape" xmlns:rdf="http://www.w3.org/1999/02/22-rdf-syntax-ns#" xmlns:sodipodi="http://sodipodi.sourceforge.net/DTD/sodipodi-0.dtd" xmlns:svg="http://www.w3.org/2000/svg"
	 xmlns="http://www.w3.org/2000/svg" xmlns:xlink="http://www.w3.org/1999/xlink" x="0px" y="0px" viewBox="0 0 420.3 149.8"
	 style="enable-background:new 0 0 420.3 149.8;" xml:space="preserve">
<style type="text/css">
	.st0{fill:#FFFFFF;}
</style>
<sodipodi:namedview  bordercolor="#666666" borderopacity="1" gridtolerance="10" guidetolerance="10" id="namedview6" inkscape:current-layer="svg4" inkscape:cx="353.93987" inkscape:cy="50.589086" inkscape:document-rotation="0" inkscape:pageopacity="0" inkscape:pageshadow="2" inkscape:window-height="837" inkscape:window-maximized="1" inkscape:window-width="1600" inkscape:window-x="-8" inkscape:window-y="-8" inkscape:zoom="5.21" objecttolerance="10" pagecolor="#ffffff" showgrid="false">
	</sodipodi:namedview>
<path id="path2" class="st0" d="M46.4,149.7c-12.5-0.5-22.8-3.9-30.8-10.3c-1.5-1.2-5.2-4.9-6.4-6.4c-3.2-4.1-5.5-8.1-6.9-12.5
	c-4.5-13.6-2.2-31.4,6.7-51c7.6-16.7,19.3-33.3,39.8-56.3c3-3.4,12-13.3,12-13.3c0,0-0.5,0.8-1.1,1.9c-5.3,8.9-9.9,19.4-12.3,28.5
	c-4,14.6-3.5,27.1,1.4,36.8c3.4,6.7,9.2,12.5,15.7,15.7c11.4,5.6,28.2,6.1,48.6,1.4c1.4-0.3,71.1-18.8,154.9-41.1
	C351.7,20.8,420.3,2.5,420.3,2.5c0,0-194.7,83.3-295.7,126.6c-16,6.8-20.3,8.6-27.8,11.2C77.5,147.1,60.3,150.3,46.4,149.7
	L46.4,149.7z"/>
</svg>
