<svg width="28" height="32" viewBox="0 0 28 32" fill="none" xmlns="http://www.w3.org/2000/svg">
<path d="M3.0625 0C2.25027 0 1.47132 0.322655 0.896985 0.896986C0.322655 1.47132 0 2.25027 0 3.0625V28.4375C0 30.128 1.372 31.5 3.0625 31.5H9.1875C9.99972 31.5 10.7787 31.1773 11.353 30.603C11.9273 30.0287 12.25 29.2497 12.25 28.4375V3.0625C12.25 2.25027 11.9273 1.47132 11.353 0.896986C10.7787 0.322655 9.99972 0 9.1875 0H3.0625Z" fill="white"/>
<path d="M18.8125 0C18.0003 0 17.2213 0.322655 16.647 0.896986C16.0727 1.47132 15.75 2.25027 15.75 3.0625V28.4375C15.75 30.128 17.122 31.5 18.8125 31.5H24.9375C25.7497 31.5 26.5287 31.1773 27.103 30.603C27.6773 30.0287 28 29.2497 28 28.4375V3.0625C28 2.66033 27.9208 2.26209 27.7669 1.89053C27.613 1.51897 27.3874 1.18136 27.103 0.896986C26.8186 0.612606 26.481 0.387024 26.1095 0.233119C25.7379 0.079214 25.3397 0 24.9375 0H18.8125V0Z" fill="white"/>
</svg>
