<?xml version="1.0" encoding="utf-8"?>
<!-- Generator: Adobe Illustrator 25.2.0, SVG Export Plug-In . SVG Version: 6.00 Build 0)  -->
<svg version="1.1"
	 id="svg3336" xmlns:cc="http://creativecommons.org/ns#" xmlns:dc="http://purl.org/dc/elements/1.1/" xmlns:rdf="http://www.w3.org/1999/02/22-rdf-syntax-ns#"
	 xmlns="http://www.w3.org/2000/svg" xmlns:xlink="http://www.w3.org/1999/xlink" x="0px" y="0px" viewBox="0 0 504 80.4"
	 style="enable-background:new 0 0 504 80.4;" xml:space="preserve">
<style type="text/css">
	.st0{clip-path:url(#SVGID_2_);}
	.st1{fill:#FFFFFF;}
	.st2{clip-path:url(#SVGID_4_);}
	.st3{clip-path:url(#SVGID_6_);}
</style>
<g id="g3344" transform="matrix(1.25 0 0 -1.25 -352.51 1003.9)">
	<g id="g3532" transform="matrix(2.4328 0 0 2.4328 -406.36 -901.55)">
		<g>
			<defs>
				<rect id="SVGID_1_" x="114" y="649.2" width="505.3" height="76.8"/>
			</defs>
			<use xlink:href="#SVGID_1_"  style="overflow:visible;fill:#FFFFFF;"/>
			<clipPath id="SVGID_2_">
				<use xlink:href="#SVGID_1_"  style="overflow:visible;"/>
			</clipPath>
			<g id="g3534" class="st0">
				<g id="g3540" transform="translate(446.22 677.78)">
					<path id="path3542" class="st1" d="M0,0c-1.3-1.4-2.8-2.2-4.7-2.6C-6-2.9-7.1-2.9-8.4-2.8c-1.7,0.2-3.1,0.7-4.5,1.8
						c-1.1,0.8-1.9,1.7-2.6,3c-0.5,0.9-0.9,1.8-1,2.9c-0.2,1.5-0.2,2.8,0.2,4.3c0.9,3.3,3.4,5.7,6.7,6.4c1.9,0.4,3.6,0.4,5.5-0.1
						c1.4-0.3,2.4-0.9,3.4-1.9c0.6-0.6,1.1-1.2,1.5-2c0.5-0.9,0.7-1.8,0.6-2.8h-6c-0.1,0.8-0.5,1.4-1.2,1.9
						c-0.8,0.6-1.9,0.7-2.8,0.1c-0.6-0.4-1-0.9-1.2-1.6c-0.5-1.6-0.5-3.2-0.1-4.8c0.2-0.7,0.5-1.2,1.1-1.7C-8.1,2-7.4,1.7-6.6,1.9
						c0.5,0.1,0.9,0.3,1.3,0.7c0.4,0.4,0.6,0.8,0.7,1.3C-4.6,4.3-4.5,4.6-4.5,5h6.3C1.9,3.1,1.3,1.4,0,0"/>
				</g>
			</g>
		</g>
	</g>
	<path id="path3544" class="st1" d="M620.4,790.2h15.9v11.3h-15.9V790.2z"/>
	<path id="path3546" class="st1" d="M620.4,741.8h15.9v42.6h-15.9V741.8z"/>
	<g id="g3548" transform="matrix(2.4328 0 0 2.4328 587.41 779.96)">
		<path id="path3550" class="st1" d="M0,0c0.9,0.8,1.7,1.3,2.7,1.8c1.7,0.8,3.4,0.9,5.2,0.4c1.9-0.6,3.3-1.9,3.9-3.8
			c0.3-0.9,0.4-1.7,0.4-2.7v-11.3h-7v10.2c0,0.3,0,0.6-0.1,1C4.9-4,4.6-3.5,4-3.3C2.8-2.8,1.4-3.2,0.7-4.4c-0.3-0.5-0.4-1-0.4-1.5
			v-9.8h-6.7V1.9h6.3L0,0"/>
	</g>
	<g id="g3552" transform="matrix(2.4328 0 0 2.4328 398.82 779.96)">
		<path id="path3554" class="st1" d="M0,0c0.9,0.8,1.7,1.3,2.7,1.8c1.7,0.8,3.4,0.9,5.2,0.4c1.9-0.6,3.3-1.9,3.9-3.8
			c0.3-0.9,0.4-1.7,0.4-2.7v-11.3h-7v10.2c0,0.3,0,0.6-0.1,1C4.9-4,4.6-3.5,4-3.3C2.8-2.8,1.4-3.2,0.7-4.4c-0.3-0.5-0.4-1-0.4-1.5
			v-9.8h-6.7V1.9h6.3L0,0"/>
	</g>
	<g id="g3556" transform="matrix(2.4328 0 0 2.4328 -406.36 -901.55)">
		<g>
			<defs>
				<rect id="SVGID_3_" x="114" y="649.2" width="505.3" height="76.8"/>
			</defs>
			<use xlink:href="#SVGID_3_"  style="overflow:visible;fill:#FFFFFF;"/>
			<clipPath id="SVGID_4_">
				<use xlink:href="#SVGID_3_"  style="overflow:visible;"/>
			</clipPath>
			<g id="g3558" class="st2">
				<g id="g3564" transform="translate(372.28 681.95)">
					<path id="path3566" class="st1" d="M0,0c0.5-0.1,0.9-0.2,1.4-0.4c0.4-0.1,0.7-0.4,0.8-0.9c0.1-0.5,0-0.9-0.4-1.2
						C1.5-2.7,1.1-2.9,0.7-3C0-3.1-0.5-3.1-1.1-2.8c-0.3,0.1-0.5,0.2-0.7,0.4c-0.3,0.3-0.5,0.5-0.6,0.9c-0.1,0.3-0.1,0.6-0.1,0.9H-9
						v-0.4c0-0.6,0.1-1.1,0.3-1.7c0.3-0.9,0.8-1.5,1.4-2.1c0.9-0.8,1.8-1.3,2.9-1.6C-2-7.1,0.2-7.2,2.6-6.8c1.1,0.2,2.1,0.5,3.1,1
						C6.2-5.6,6.5-5.3,6.9-5c1.7,1.5,2.4,3.7,1.7,5.8c-0.3,0.8-0.7,1.4-1.3,2C6.4,3.6,5.5,4.1,4.4,4.4C4.1,4.5,3.9,4.5,3.7,4.6
						C2.3,5,1.1,5.2-0.3,5.5C-0.7,5.5-1,5.6-1.4,5.7c-0.2,0-0.3,0.1-0.5,0.2c-0.4,0.2-0.6,0.6-0.4,1c0,0,0,0,0,0.1
						C-2,7.3-1.7,7.5-1.3,7.7c0.7,0.2,1.4,0.2,2.1-0.1C1.6,7.4,2,6.7,2,6h6.2c0,0.8-0.1,1.4-0.4,2.1C7.5,8.9,7.1,9.4,6.5,9.9
						c-0.5,0.4-1,0.7-1.7,0.9c-0.6,0.2-1.1,0.4-1.8,0.5c-1.5,0.3-2.9,0.3-4.4,0.2c-0.9-0.1-1.6-0.2-2.5-0.4C-5,10.9-6,10.5-6.9,9.7
						c-0.8-0.6-1.3-1.4-1.7-2.3C-8.7,7-8.8,6.6-8.8,6.1c0-0.8,0.1-1.4,0.4-2.1C-7.9,2.7-7,1.8-5.8,1.3C-5.1,1-4.5,0.9-3.9,0.7
						C-2.5,0.4-1.4,0.2,0,0"/>
				</g>
			</g>
		</g>
	</g>
	<g id="g3568" transform="matrix(2.4328 0 0 2.4328 312.66 760.21)">
		<path id="path3570" class="st1" d="M0,0h-4.5v5.8h2.9c0.6,0,1,0,1.6,0c0.8,0,1.4,0.4,1.9,1c0.2,0.3,0.4,0.7,0.4,1.1
			c0,0.3,0.1,0.6,0,1c-0.1,1.3-1.2,2.2-2.5,2.2h-4.4V-7.6h-7.4V17H0.2c0.5,0,0.9,0,1.4,0c3.2-0.2,5.9-2,7.3-4.9c0.7-1.5,1-3,0.8-4.7
			c-0.4-3.5-2.9-6.3-6.3-7C2.2,0.1,1.2,0,0,0"/>
	</g>
	<g id="g3572" transform="matrix(2.4328 0 0 2.4328 550.47 785.28)">
		<path id="path3574" class="st1" d="M0,0c-0.7,0.1-1.3,0.2-2,0.2c-0.7,0-1.3,0-2-0.2c-2-0.3-3.6-1.1-5.1-2.5
			C-10.7-4-11.5-5.8-11.7-8c-0.1-1.3,0-2.5,0.3-3.8c0.6-2,1.6-3.5,3.2-4.8c1.1-0.8,2.1-1.3,3.5-1.6c0.9-0.2,1.8-0.3,2.7-0.3
			c1,0,1.8,0.1,2.7,0.3c1.3,0.3,2.4,0.8,3.5,1.6l-3.8,4.1c-0.6-1.3-2.2-1.9-3.5-1.3c-0.6,0.3-1,0.7-1.3,1.3
			c-0.3,0.6-0.4,1.1-0.5,1.7c-0.2,1.2-0.2,2.3,0.1,3.5c0.1,0.6,0.3,1.2,0.7,1.7C-3.4-4.3-1.8-4-0.6-4.8C-0.3-5,0-5.2,0.2-5.5
			c0.4-0.5,0.6-1.1,0.7-1.7c0.2-1.2,0.3-2.3,0.1-3.5c-0.1-0.6-0.2-1.1-0.5-1.7l3.8-4.1c1.6,1.2,2.7,2.8,3.2,4.8
			C7.8-10.5,7.9-9.3,7.7-8C7.5-5.8,6.7-4,5.1-2.5C3.6-1.1,2-0.3,0,0"/>
	</g>
	<g id="g3576" transform="matrix(2.4328 0 0 2.4328 -406.36 -901.55)">
		<g>
			<defs>
				<rect id="SVGID_5_" x="114" y="649.2" width="505.3" height="76.8"/>
			</defs>
			<use xlink:href="#SVGID_5_"  style="overflow:visible;fill:#FFFFFF;"/>
			<clipPath id="SVGID_6_">
				<use xlink:href="#SVGID_5_"  style="overflow:visible;"/>
			</clipPath>
			<g id="g3578" class="st3">
				<g id="g3584" transform="translate(362.55 676.88)">
					<path id="path3586" class="st1" d="M0,0c-0.1,1.4-0.2,2.7-0.2,4.1c0,1.9-0.1,3.5-0.1,5.4c0,1-0.1,1.9-0.4,2.9
						c-0.3,1.3-1.1,2.3-2.3,3c-0.7,0.4-1.4,0.6-2.2,0.8c-2.5,0.5-4.8,0.6-7.3,0.1c-0.7-0.1-1.3-0.3-2-0.6c-1.6-0.6-2.6-1.8-3.1-3.4
						c-0.2-0.6-0.2-1.2-0.2-1.8c0-0.1,0-0.2,0.1-0.3l5.9-0.1c0,0.4,0,0.7,0.2,1c0.2,0.5,0.6,0.9,1.1,1.1c0.8,0.3,1.6,0.3,2.4,0
						c0.5-0.2,0.9-0.6,1.1-1.1c0.1-0.3,0.1-0.7-0.1-0.9C-7.3,10-7.5,9.8-7.8,9.7c-0.2-0.1-0.3-0.1-0.5-0.2C-9.1,9.3-9.8,9.2-10.6,9
						c-0.7-0.1-1.2-0.2-1.9-0.3C-13.4,8.5-14.2,8.3-15,8c-0.8-0.3-1.4-0.6-2-1.2c-0.8-0.7-1.3-1.6-1.4-2.7c-0.1-0.7-0.1-1.3,0.1-2
						c0.4-1.8,1.7-3.2,3.5-3.7c2-0.6,3.9-0.5,5.8,0.3c0.9,0.4,1.7,0.9,2.3,1.7l-0.4,3c-0.3-0.5-0.7-0.8-1.2-1
						c-0.5-0.2-0.9-0.3-1.4-0.4c-0.4,0-0.8,0-1.2,0.1c-0.3,0.1-0.6,0.2-0.8,0.5c-0.2,0.2-0.3,0.4-0.4,0.7c-0.1,0.4,0.1,0.9,0.4,1.2
						c0.2,0.2,0.5,0.3,0.7,0.4c0.7,0.3,1.3,0.4,2,0.6c0.8,0.2,1.6,0.5,2.3,0.9c0.1-0.6,0.1-1.2,0-1.8C-6.8,4.2-7,3.8-7.2,3.4l0.4-3
						C-6.7,0-6.5-0.4-6.4-0.8C-6.3-1-6.2-1.2-6-1.4h6.5C0.2-0.9,0-0.5,0,0"/>
				</g>
				<g id="g3588" transform="translate(323.2 676.88)">
					<path id="path3590" class="st1" d="M0,0c-0.1,1.4-0.2,2.7-0.2,4.1c0,1.9-0.1,3.5-0.1,5.4c0,1-0.1,1.9-0.4,2.9
						c-0.3,1.3-1.1,2.3-2.3,3c-0.7,0.4-1.4,0.6-2.2,0.8c-2.5,0.5-4.8,0.6-7.3,0.1c-0.7-0.1-1.3-0.3-2-0.6c-1.6-0.6-2.6-1.8-3.1-3.4
						c-0.2-0.6-0.2-1.2-0.2-1.8c0-0.1,0-0.2,0.1-0.3l5.9-0.1c0,0.4,0,0.7,0.2,1c0.2,0.5,0.6,0.9,1.1,1.1c0.8,0.3,1.6,0.3,2.4,0
						c0.5-0.2,0.9-0.6,1.1-1.1c0.1-0.3,0.1-0.7-0.2-0.9C-7.3,10-7.5,9.8-7.8,9.7c-0.2-0.1-0.3-0.1-0.5-0.2C-9.1,9.3-9.8,9.2-10.6,9
						c-0.7-0.1-1.2-0.2-1.9-0.3C-13.4,8.5-14.2,8.3-15,8c-0.8-0.3-1.4-0.6-2-1.2c-0.8-0.7-1.2-1.6-1.4-2.7c-0.1-0.7-0.1-1.3,0.1-2
						c0.4-1.8,1.7-3.2,3.5-3.7c2-0.6,3.9-0.5,5.8,0.3c0.9,0.4,1.7,0.9,2.3,1.7l-0.4,3c-0.3-0.5-0.7-0.8-1.2-1
						c-0.5-0.2-0.9-0.3-1.4-0.4c-0.4,0-0.8,0-1.2,0.1c-0.3,0.1-0.6,0.2-0.8,0.5c-0.2,0.2-0.3,0.4-0.4,0.7c-0.1,0.4,0.1,0.9,0.4,1.2
						c0.2,0.2,0.5,0.3,0.7,0.4c0.7,0.3,1.3,0.4,2,0.6c0.8,0.2,1.5,0.5,2.4,0.9c0.1-0.6,0.1-1.2,0-1.8C-6.8,4.2-7,3.8-7.2,3.4l0.4-3
						C-6.7,0-6.5-0.4-6.4-0.8C-6.3-1-6.2-1.2-6-1.4h6.5C0.2-0.9,0-0.5,0,0"/>
				</g>
			</g>
		</g>
	</g>
</g>
</svg>
