<svg xmlns="http://www.w3.org/2000/svg" width="59.556" height="59.554" viewBox="0 0 59.556 59.554"><defs><style>.a,.b{fill:#000;stroke: none;}.a{fill-rule:evenodd;}</style></defs><g transform="translate(0 0)"><path class="a" d="M41.963,65.873l12.146,9.4a1.253,1.253,0,0,1,.141,1.864,38.535,38.535,0,0,1-4.5,4.068,11.5,11.5,0,0,1-12.923,1.081A104.328,104.328,0,0,1,1.518,46.972,11.493,11.493,0,0,1,2.6,34.051a38.565,38.565,0,0,1,4.068-4.5,1.253,1.253,0,0,1,1.864.141l9.4,12.146a1.222,1.222,0,0,1,.248.97l-1.127,6.965a5.385,5.385,0,0,0,1.6,4.343L29.683,65.146a5.385,5.385,0,0,0,4.343,1.6l6.965-1.125a1.215,1.215,0,0,1,.97.246Z" transform="translate(-0.008 -24.236)"/><path class="a" d="M198.719,28.763a1.636,1.636,0,0,0,3.271,0A28.873,28.873,0,0,0,173.225,0a1.635,1.635,0,1,0,0,3.269A25.59,25.59,0,0,1,198.719,28.763Z" transform="translate(-142.434)"/><path class="a" d="M190.7,67.943a1.635,1.635,0,0,0,3.269,0A20.821,20.821,0,0,0,173.225,47.2a1.635,1.635,0,1,0,0,3.269A17.541,17.541,0,0,1,190.7,67.943Z" transform="translate(-142.434 -39.18)"/><path class="b" d="M182.678,107.122a1.635,1.635,0,0,0,3.269,0A12.77,12.77,0,0,0,173.225,94.4a1.636,1.636,0,0,0,0,3.271A9.49,9.49,0,0,1,182.678,107.122Z" transform="translate(-142.434 -78.359)"/></g></svg>