<?xml version="1.0" encoding="utf-8"?>
<!-- Generator: Adobe Illustrator 25.2.0, SVG Export Plug-In . SVG Version: 6.00 Build 0)  -->
<svg version="1.1"
	 id="svg2" xmlns:cc="http://creativecommons.org/ns#" xmlns:dc="http://purl.org/dc/elements/1.1/" xmlns:inkscape="http://www.inkscape.org/namespaces/inkscape" xmlns:rdf="http://www.w3.org/1999/02/22-rdf-syntax-ns#" xmlns:svg="http://www.w3.org/2000/svg"
	 xmlns="http://www.w3.org/2000/svg" xmlns:xlink="http://www.w3.org/1999/xlink" x="0px" y="0px" viewBox="0 0 1162.6 263.9"
	 style="enable-background:new 0 0 1162.6 263.9;" xml:space="preserve">
<style type="text/css">
	.st0{fill:#FFFFFF;}
</style>
<g id="g10" transform="matrix(1.25,0,0,-1.25,0,263.8875)">
	<g id="g12" transform="scale(0.1,0.1)">
		<path id="path14" inkscape:connector-curvature="0" class="st0" d="M6686.6,1079.6c12.6,113.8,66.2,216.2,146.3,294.5
			c4.5,4.5,9.3,9,14,13.3c4.8,4.3,9.7,8.3,14.7,12.5c74.3,61.3,164.6,102.4,257.4,119.4c1.6,0.2,3.3,0.3,5,0.7
			c13.4,2.3,26.8,4.1,40.1,5.4c16.9,1.6,34.1,2.4,51.4,2.4c4,0,8.2-0.4,12.1-0.5c14.1-0.3,28.7-1.5,43.4-2.7
			c105.6-11.6,207.4-55.4,291-127.2l55.6-47.9l240.1,248l-62.2,54c-145.7,126.3-367.6,205-579.9,205
			c-560.1,0-894.6-421.3-894.6-828.9c0,0,0,0,0-0.1c0,0,0,0,0-0.1c0-407.4,334.4-828.8,894.6-828.8c212.3,0,434.2,78.7,579.9,205
			l62.2,54l-240.1,247.9l-55.6-47.9c-83.6-71.8-185.3-115.5-291-127.1c-14.7-1.4-29.3-2.6-43.4-2.9c-3.9-0.1-8.1-0.5-12.1-0.5
			c-17.3,0-34.5,1-51.4,2.5c-13.4,1.3-26.7,3.2-40.1,5.4c-1.7,0.4-3.4,0.6-5,0.9c-92.8,16.9-183.1,58.1-257.4,119.2
			c-5,4.1-10,8.2-14.7,12.6c-4.7,4.3-9.5,8.8-14,13.3c-80.1,78.2-133.7,180.8-146.3,294.6c-1.6,15.4-2.4,31.2-2.6,47.2
			c0,1.6-0.3,3.1-0.3,4.7c0,1.6,0.3,3.2,0.3,4.7C6684.1,1048.4,6685,1064.2,6686.6,1079.6L6686.6,1079.6z M5432.7,877.6
			c44.9,110.2,109.9,269.9,175.6,430.1c65.5-160.2,130.7-319.9,175.5-430.1H5432.7z M5471.8,1833.5L4954.7,631.2l-163.9-381.1
			l-12.4-28.6H5162c0,0,110.5,268.2,139.8,339.1h612.8c29.5-70.9,139.9-339.1,139.9-339.1h383.4l-693.2,1612H5471.8L5471.8,1833.5z
			 M7907.2,221.6h1081.4v328.6c0,0-586.6,0-714.6,0V871c128,0,714.6,0,714.6,0v328.4c0,0-586.6,0-714.6,0v305.8
			c128,0,714.6,0,714.6,0v328.4H7907.2L7907.2,221.6L7907.2,221.6z M3338.2,1171.4l-214.6,69c-191.3,61.2-191.3,123.6-191.3,153.8
			c0,45.9,21.8,153.6,224.4,153.6c204.8,0,348.4-78.1,475.5-182.2c0,0,70.5,153.2,152.7,263.1c0,0-200.1,243.9-625.9,243.9
			c-350.7,0-605.1-203.6-605.1-484.2c0-223,141.9-378.7,433.7-476.1l216.9-72.8c137.9-46.2,207.7-100.1,207.7-159.8
			c0-83.2-104.2-148-237.7-148c-218.1,0-258.6,99.6-269.6,197.3h-378.8l1.1-16.6c29.2-316.7,267.2-505.5,636.2-505.5
			c369.4,0,627.4,200.7,627.4,488C3790.9,915.2,3638.8,1075.6,3338.2,1171.4L3338.2,1171.4z M4379.7,1034.8c0,0-58,0-112.4,0v481.8
			c54.5,0,112.4,0,112.4,0c288.7,0,288.7-182.1,288.7-241.7C4668.4,1215.4,4668.4,1034.8,4379.7,1034.8z M5019,1274.9
			c0,270.7-209.9,558.6-599,558.6h-503.4v-1612h350.6c0,0,0,385.4,0,496.2c68.6,0,152.7,0,152.7,0
			C4809.1,717.8,5019,1004.7,5019,1274.9"/>
		<path id="path16" inkscape:connector-curvature="0" class="st0" d="M1055.6,427c-329.3,0-596.4,265-596.4,591.7
			c0,237,140.5,441.5,343.4,535.9v127.8c0,138.6,113.2,251,253,251c139.7,0,252.8-112.4,252.8-251l-4.5-125.7
			c205.3-93.5,348-299.1,348-537.9C1652,691.9,1385,427,1055.6,427L1055.6,427z M1055.6,2111.1C472.7,2111.1,0,1638.5,0,1055.6
			C0,472.6,472.7,0,1055.6,0c582.9,0,1055.4,472.6,1055.4,1055.6C2111.1,1638.5,1638.5,2111.1,1055.6,2111.1L1055.6,2111.1z
			 M1055.6,1277.2c-139.6,0-252.9-112.3-252.9-250.8c0-138.6,113.3-250.9,252.9-250.9c139.5,0,252.8,112.3,252.8,250.9
			C1308.4,1164.9,1195.1,1277.2,1055.6,1277.2"/>
		<path id="path18" inkscape:connector-curvature="0" class="st0" d="M9148,363.9v-25h-42.2V222.7H9076v116.1h-42.3v25H9148"/>
		<path id="path20" inkscape:connector-curvature="0" class="st0" d="M9258.7,363.9h42.4V222.7h-27.4v95.4c0,2.8,0,6.6,0.1,11.6
			c0.1,4.9,0.1,8.8,0.1,11.4L9247,222.7h-28.6l-26.5,118.4c0-2.7,0-6.5,0.1-11.4c0.1-4.9,0.1-8.8,0.1-11.6v-95.4h-27.4v141.1h42.8
			l25.7-111L9258.7,363.9"/>
	</g>
</g>
</svg>
