<?xml version="1.0" encoding="utf-8"?>
<!-- Generator: Adobe Illustrator 25.2.0, SVG Export Plug-In . SVG Version: 6.00 Build 0)  -->
<svg version="1.1"
	 id="Camada_1" inkscape:version="1.0.2 (e86c870879, 2021-01-15)" sodipodi:docname="Star_Channel_2021.svg" xmlns:cc="http://creativecommons.org/ns#" xmlns:dc="http://purl.org/dc/elements/1.1/" xmlns:inkscape="http://www.inkscape.org/namespaces/inkscape" xmlns:rdf="http://www.w3.org/1999/02/22-rdf-syntax-ns#" xmlns:sodipodi="http://sodipodi.sourceforge.net/DTD/sodipodi-0.dtd" xmlns:svg="http://www.w3.org/2000/svg"
	 xmlns="http://www.w3.org/2000/svg" xmlns:xlink="http://www.w3.org/1999/xlink" x="0px" y="0px" viewBox="0 0 1000 577.5"
	 style="enable-background:new 0 0 1000 577.5;" xml:space="preserve">
<style type="text/css">
	.st0{fill:#FFFFFF;}
</style>
<sodipodi:namedview  bordercolor="#666666" borderopacity="1" gridtolerance="10" guidetolerance="10" id="namedview38" inkscape:current-layer="Camada_1" inkscape:cx="553.24466" inkscape:cy="274.55569" inkscape:pageopacity="0" inkscape:pageshadow="2" inkscape:window-height="705" inkscape:window-maximized="1" inkscape:window-width="1366" inkscape:window-x="-8" inkscape:window-y="-8" inkscape:zoom="0.70710678" objecttolerance="10" pagecolor="#ffffff" showgrid="false">
	</sodipodi:namedview>
<g id="g135">
	<path id="path11" class="st0" d="M849.3,102.9h39.2c23.6,0,38.7,12.2,38.7,33.5c0,23.2-15.1,38.3-38.7,38.3h-39.2V102.9z
		 M916.8,221.4c40.6-5.2,74.1-40.1,74.1-84.5c0-57.6-39.2-89.2-102.4-89.2h-102v289.9h62.8V221.4l77.9,116.1h72.7L916.8,221.4z"/>
	<polygon id="polygon13" class="st0" points="281.8,337.5 345.6,337.5 345.6,104.8 409.3,104.8 409.3,47.7 218.1,47.7 218.1,104.8 
		281.8,104.8 	"/>
	<path id="path15" class="st0" d="M100.1,154.4c-18.9-8.5-26-17.9-26-30.2c0-14.2,11.8-26,30.7-25.5c16.5,0.4,29.3,9.4,38.3,30.7
		l54.3-24.1c-15.1-38.7-45.8-61.3-95.3-61.3c-52.4,0-91.1,34.5-91.1,80.7c0,31.6,15.6,56.6,52.4,75.1l40.6,20.3
		c22.6,11.4,33.5,19.8,33.5,36.3c0,17.9-14.6,30.7-33.5,30.7c-20.3,0-38.7-11.4-47.2-36.8L0,266.8c13.2,47.7,52.4,75.6,103.4,75.6
		c55.2,0,97.7-35.4,97.7-86.4c0-39.2-21.2-65.2-61.9-83.5L100.1,154.4z"/>
	<path id="path19" class="st0" d="M162.7,488.8c-5.1-6-12.5-9.5-22-9.5c-19.3,0-33.5,15.7-33.5,37.3c0,21.6,14.2,37.3,32.7,37.3
		c10.3,0,18.7-4.6,23.9-12.5l21.3,15.9c-9.7,13.8-26,20.1-41.9,20.1c-36.2,0-62.5-23.7-62.5-60.9s26.3-60.9,62.5-60.9
		c12.9,0,29.3,4.4,39.2,17L162.7,488.8z"/>
	<path id="path21" class="st0" d="M209,458.7h25.5v43.2h49.6v-43.2h25.5v115.9h-25.5v-50.1h-49.6v50.1H209V458.7z"/>
	<path id="path23" class="st0" d="M381.2,458.7h21.1l50.4,115.9h-28.8l-10-24.6h-45l-9.7,24.6H331L381.2,458.7z M391,492.4
		l-14.1,36.1h28.3L391,492.4z"/>
	<path id="path25" class="st0" d="M474.2,458.7h34.7l49.3,80.5h0.3v-80.5h25.5v115.9h-33.4L500,492.1h-0.3v82.5h-25.5L474.2,458.7z"
		/>
	<path id="path27" class="st0" d="M617.4,458.7h34.7l49.3,80.5h0.3v-80.5h25.7v115.9h-33.4l-50.7-82.5h-0.3v82.5h-25.5V458.7z"/>
	<path id="path29" class="st0" d="M761.6,458.7h78.7v23.6h-53.2v21.6h50.3v23.6h-50.3v23.6h56.2v23.6h-81.7L761.6,458.7z"/>
	<path id="path31" class="st0" d="M874.6,458.7h25.5V551h47.3v23.6h-72.8V458.7z"/>
	<path id="path3144" inkscape:connector-curvature="0" class="st0" d="M769.5,139.7H622.4L576.9-0.1l-45.5,139.8H384.3l118,86.6
		c0,0,57.7-38,127.6-52.3c-103.1,76.1-159.1,151.6-159.1,151.6v0v0l-12.9,40.6l119-86.4l119,86.4l-45.4-139.9L769.5,139.7z"/>
</g>
</svg>
