<svg xmlns="http://www.w3.org/2000/svg" width="34.563" height="28.055" viewBox="0 0 34.563 28.055"><defs><style>.a{fill:#fff;}</style></defs><path class="a" d="M982.242,1147.873v.908a20.509,20.509,0,0,1-1.3,7.1,21.174,21.174,0,0,1-3.866,6.471,19.187,19.187,0,0,1-6.313,4.736,20.6,20.6,0,0,1-8.641,1.815,20.2,20.2,0,0,1-5.76-.828,19.587,19.587,0,0,1-5.129-2.328q.829.08,1.7.079a14.086,14.086,0,0,0,4.7-.789,14.713,14.713,0,0,0,4.1-2.209,7.087,7.087,0,0,1-4.1-1.44,6.833,6.833,0,0,1-2.486-3.492,7.035,7.035,0,0,0,1.3.119,7.315,7.315,0,0,0,1.854-.237,6.851,6.851,0,0,1-2.88-1.322,7.034,7.034,0,0,1-2.032-2.487,7.386,7.386,0,0,1-.769-3.137v-.119a6.644,6.644,0,0,0,3.235.907,7.137,7.137,0,0,1-2.308-2.545,6.935,6.935,0,0,1-.848-3.374,7.047,7.047,0,0,1,.947-3.551,20.233,20.233,0,0,0,14.6,7.417,8.208,8.208,0,0,1-.158-1.618,6.9,6.9,0,0,1,.947-3.551,7.149,7.149,0,0,1,2.584-2.584,6.829,6.829,0,0,1,3.531-.967,7.024,7.024,0,0,1,5.169,2.25,13.782,13.782,0,0,0,4.5-1.736,6.86,6.86,0,0,1-1.2,2.269,7.283,7.283,0,0,1-1.913,1.677,14.411,14.411,0,0,0,4.1-1.144A14.833,14.833,0,0,1,982.242,1147.873Z" transform="translate(-951.23 -1140.849)"/></svg>