<?xml version="1.0" encoding="utf-8"?>
<!-- Generator: Adobe Illustrator 25.2.0, SVG Export Plug-In . SVG Version: 6.00 Build 0)  -->
<svg version="1.1" id="Layer_1" xmlns="http://www.w3.org/2000/svg" xmlns:xlink="http://www.w3.org/1999/xlink" x="0px" y="0px"
	 viewBox="0 0 784.2 1000" style="enable-background:new 0 0 784.2 1000;" xml:space="preserve">
<style type="text/css">
	.st0{fill:#FFFFFF;}
</style>
<path class="st0" d="M773.3,999.5c5.9,0,10.9-4.9,10.9-10.9c0-5.9-5-10.9-10.9-10.9c-6,0-10.9,5-10.9,10.9
	C762.4,994.6,767.3,999.5,773.3,999.5 M696.8,973c5.7,18.2,17.1,26.7,32.5,26.7c16.8,0,30.7-13.5,30.7-31.4
	c0-12.5-5.5-22.1-17.2-30.7l-12.2-9.1c-7.3-5.4-10.9-10.9-10.9-17.1c0-5.4,3.6-10.1,9.4-10.1c7.6,0,11.7,6,14.3,15.4l15.8-9.4
	c-5.4-16.7-15.4-23.7-29.3-23.7c-15.6,0-28.5,12.2-28.5,29.1c0,10.1,3.9,20.3,15.4,28.9l13.5,10.1c6.8,5.2,11.4,10.9,11.4,18
	c0,6.5-4.9,12.2-12,12.2c-9.3,0-14.5-6.8-17.7-18.2L696.8,973z M657.4,982.3c-10.6,0-17.2-13.3-17.2-40.6s6.6-40.8,17.2-40.8
	c10.5,0,17.2,13.5,17.2,40.8S668,982.3,657.4,982.3 M657.4,1000c22.2,0,35.8-19.2,35.8-58.4c0-39.2-13.7-58.5-35.8-58.5
	c-22.1,0-35.8,19.3-35.8,58.5C621.6,980.8,635.1,1000,657.4,1000 M596.6,919.9c0,10.6-7.2,17.6-19.5,21.9l-2.8,1v-40.5
	C589.1,903,596.6,909.8,596.6,919.9 M598.7,998.5H619l-20-48.3c9.8-7,15.8-16.7,15.8-30.4c0-22.1-17.2-35.1-41.6-35.1h-17.3v113.8
	h18.4v-36.9l2.1-0.7c2.3-0.7,4.4-1.5,6.5-2.3L598.7,998.5z M507.4,949.3c11.9-2.9,21.5,1.8,21.5,12c0,11.7-11.2,20-27,20v-30.7
	L507.4,949.3z M521.7,916.3c0,8-6,14.5-16.9,16.7l-2.9,0.6v-31.5C514.2,902.5,521.7,907.8,521.7,916.3 M547,961.1
	c0-12.4-6.7-21.8-18.1-25.7c6.7-5.7,10.6-13.2,10.6-20.6c0-18.4-15.8-30.1-40.3-30.1h-15.6v113.8h15.9
	C528.4,998.5,547,982.8,547,961.1 M428.8,919.9c0,10.6-7.2,17.6-19.5,21.9l-2.8,1v-40.5C421.4,903,428.8,909.8,428.8,919.9
	 M431,998.5h20.3l-20-48.3c9.8-7,15.8-16.7,15.8-30.4c0-22.1-17.2-35.1-41.6-35.1h-17.2v113.8h18.4v-36.9l2.1-0.7
	c2.3-0.7,4.4-1.5,6.5-2.3L431,998.5z M325.8,998.5h54.1V981h-35.8v-32.2H371v-18h-26.8v-28.4h32.2l3.6-17.6h-54.1V998.5z
	 M247.9,998.5h17.9v-70.7l29.6,70.7h18V884.7h-17.9v70.7L266,884.7h-18V998.5z M220,919.9c0,10.6-7.2,17.6-19.5,21.9l-2.8,1v-40.5
	C212.5,903,220,909.8,220,919.9 M222.1,998.5h20.3l-20-48.3c9.8-7,15.8-16.7,15.8-30.4c0-22.1-17.2-35.1-41.6-35.1h-17.2v113.8h18.4
	v-36.9l2.1-0.7c2.3-0.7,4.4-1.5,6.5-2.3L222.1,998.5z M128.4,959.7l9.3-48.6l9.3,48.6H128.4z M102.7,998.5h18.2l4.1-21.3h25.4
	l4.1,21.3h18.9l-22.9-113.8h-24.7L102.7,998.5z M23.2,998.5h18.5l13.8-72.3l13.8,72.3h18.5l23.4-113.8H93l-14.5,74l-14-74H47.3
	l-14,74l-14.3-74H0L23.2,998.5z"/>
<path class="st0" d="M705.1,142.9c-0.8-3.4-1.7-4.6-3.4-5l-60.5-16l-8.4-34.4c-0.4-1.7-0.8-2.9-2.5-3.4l-62.2-16.8l-7.6-32.8
	c-0.4-2.5-1.7-3.8-3.4-4.2L395.8,0.4c-2.6-0.5-5.4-0.5-8,0L226.4,30.3c-1.7,0.4-2.9,1.7-3.4,4.2l-7.5,32.8l-62.2,16.8
	c-1.7,0.4-2.1,1.7-2.5,3.4l-8.4,34.4l-60.5,16c-1.7,0.4-2.5,1.7-3.4,5c-5,26-7.5,53.8-7.5,81.5c0,241.9,126,451.9,314.1,577.1
	c2.5,1.7,5,3.4,6.7,3.4c1.7,0,4.2-1.7,6.7-3.4c188.1-125.2,314.1-335.2,314.1-577.1C712.7,196.6,710.2,168.9,705.1,142.9"/>
<path class="st0" d="M368.3,690.1c0,1.7-1.7,2.5-3.4,0.9c-46.2-52.9-77.3-117.6-98.3-188.1L234.8,523c-8.4,5.9-15.1,3.4-20.1-5.9
	c-42.8-75.6-70.5-199.9-73.1-287.2c0-4.2,0.8-6.7,4.2-10.9c10.9-13.4,24.3-26.9,36.9-38.6c2.5-2.5,5.1-0.8,5.1,3.4
	c0,107.5,18.4,207.4,47.9,272.9c2.5,5,5,5,8.4,2.5l9.2-5.9c-17.6-78.1-27.7-182.2-25.2-302.3c0-4.2,0.8-5.9,3.4-7.6
	c9.2-5.9,26-15.1,40.3-21c4.2-1.7,5-0.8,5,2.5c-2.5,174.7,11.8,295.6,42.8,392.2c0.8,2.5,3.4,1.7,3.4-0.8
	c-1.7-35.3-1.7-66.3-1.7-104.1l-1.7-301.5c0-3.4,0.8-5,4.2-5.9c14.3-3.4,26.9-5.9,42-7.6c1.7,0,2.5,0.8,2.5,2.5L368.3,690.1
	L368.3,690.1z M553.1,217.3c0-33.6-38.6-61.3-89.9-64.7v175.5C527.9,290.4,553.1,252.6,553.1,217.3 M546.4,343.3
	c-17.6,0-33.6,6.7-83.1,42v189.8c85.7-95.7,110-161.2,110-194.8C573.2,356.7,562.3,343.3,546.4,343.3 M418.7,691
	c-1.7,1.7-3.4,0.8-3.4-0.9V99.8c0-1.7,0.8-2.5,2.5-2.5c112.5,7.6,184.7,54.6,184.7,122.6c0,28.6-10.9,56.3-29.4,76.4
	c36.9,10.1,51.2,37.8,51.2,74.7C624.5,436.5,576.6,544.8,418.7,691"/>
</svg>
