<svg xmlns="http://www.w3.org/2000/svg" width="61.851" height="61.519" viewBox="0 0 61.851 61.519"><defs><style>.a{fill:#323232; stroke: none;}</style></defs><g transform="translate(0)"><g transform="translate(0 0)"><path class="a" d="M44.6,21.095c-.04-.113-.083-.221-.124-.333-.125-.342-.253-.678-.384-1.006-.06-.15-.121-.3-.182-.442q-.178-.428-.361-.839c-.065-.145-.13-.289-.2-.431-.129-.276-.26-.544-.392-.808-.061-.121-.121-.244-.182-.362q-.264-.506-.537-.978c-.019-.033-.038-.069-.057-.1-.2-.347-.41-.678-.62-1-.06-.091-.121-.175-.181-.263-.152-.222-.3-.44-.459-.647-.076-.1-.153-.2-.229-.3q-.217-.278-.439-.536c-.079-.092-.158-.183-.237-.271-.157-.174-.316-.339-.476-.5-.069-.068-.136-.14-.205-.206-.229-.218-.46-.423-.694-.609l-.009-.006c-.229-.182-.461-.345-.694-.495-.075-.048-.15-.089-.225-.134-.164-.1-.328-.19-.493-.273-.087-.043-.174-.083-.262-.122q-.237-.106-.477-.188c-.087-.03-.173-.061-.26-.087-.046-.013-.092-.02-.137-.033V22.451h8.969Q44.835,21.757,44.6,21.095Z" transform="translate(-3.817 -10.133)"/><path class="a" d="M47.656,36.675H36.091V22.265H45.8q.26,1,.482,2.041c.074.371.161.73.235,1.1.247,1.262.458,2.56.631,3.872.025.148.025.309.049.458q.2,1.763.334,3.562c.037.458.037.928.062,1.4C47.632,35.352,47.644,36.007,47.656,36.675Z" transform="translate(-3.816 -7.259)"/><path class="a" d="M36.129,36.085V50.5h-9.71q-.26-1-.482-2.041c-.074-.371-.173-.73-.247-1.1-.247-1.262-.458-2.561-.631-3.872-.012-.148-.025-.309-.037-.458q-.223-1.763-.334-3.562c-.037-.458-.05-.928-.074-1.4-.025-.656-.05-1.311-.062-1.979Z" transform="translate(-6.551 -3.984)"/><path class="a" d="M46.279,48.456c.08-.371.172-.729.245-1.106.245-1.263.457-2.553.627-3.872.019-.151.028-.308.046-.46q.212-1.753.336-3.553c.031-.465.042-.937.064-1.406.031-.655.049-1.312.062-1.972H36.087v14.4H45.8Q46.055,49.49,46.279,48.456Z" transform="translate(-3.817 -3.983)"/><path class="a" d="M35.629,10.135v12.32H26.661c.148-.47.3-.915.458-1.361.037-.111.074-.223.124-.334.124-.334.247-.68.383-1l.186-.445c.111-.285.235-.569.359-.841.062-.136.124-.284.2-.433.124-.272.26-.544.383-.8.062-.124.124-.247.186-.359.173-.346.359-.668.544-.99.012-.025.037-.062.05-.087.2-.359.408-.68.618-1l.186-.26c.148-.223.3-.445.458-.656l.223-.3c.148-.186.3-.359.445-.532l.235-.272c.161-.173.322-.334.47-.495l.21-.21c.235-.21.458-.421.693-.606.012,0,.012,0,.012-.012.235-.173.458-.334.693-.482a1.461,1.461,0,0,1,.235-.136,4.743,4.743,0,0,1,.482-.272,2.471,2.471,0,0,1,.26-.124,3.857,3.857,0,0,1,.482-.186c.087-.037.173-.062.26-.1C35.542,10.147,35.579,10.147,35.629,10.135Z" transform="translate(-6.051 -10.133)"/><path class="a" d="M45.059,49.9c-.148.47-.309.915-.458,1.361-.05.111-.087.223-.124.334-.124.346-.26.68-.383,1l-.186.445c-.124.285-.235.569-.359.841-.062.149-.136.285-.2.433-.124.272-.26.544-.4.8-.062.124-.111.247-.173.359-.186.346-.359.668-.544.977-.012.037-.037.074-.049.111-.21.346-.421.668-.631.99a1.889,1.889,0,0,1-.173.26c-.148.223-.309.445-.458.656-.074.1-.161.2-.235.3-.148.186-.284.359-.433.532-.087.1-.161.186-.235.272-.161.173-.322.334-.482.495-.074.074-.136.149-.21.21-.223.21-.458.421-.693.606V60.9c-.235.173-.47.334-.693.495-.087.05-.161.087-.235.124a3.854,3.854,0,0,1-.495.272,2.477,2.477,0,0,1-.26.124c-.161.074-.309.136-.47.2a2.131,2.131,0,0,0-.26.087c-.049.012-.1.012-.136.025V49.9Z" transform="translate(-3.816 -0.709)"/><path class="a" d="M25.935,24.3c-.08.371-.172.729-.245,1.106-.245,1.263-.457,2.553-.627,3.872-.019.151-.028.308-.046.46q-.212,1.753-.336,3.553c-.031.465-.042.937-.064,1.406-.031.655-.049,1.312-.062,1.972H36.128v-14.4H26.415Q26.159,23.269,25.935,24.3Z" transform="translate(-6.55 -7.258)"/><path class="a" d="M27.116,51.265c.04.113.083.221.124.333.125.342.253.678.384,1.006.06.15.121.3.182.442q.177.427.36.838c.065.146.131.291.2.434.128.275.259.543.391.805.061.121.121.245.183.363q.266.51.542.988c.017.03.034.062.051.092.2.348.411.679.621,1,.059.089.119.173.179.26.152.223.305.441.461.649.076.1.153.2.23.3q.216.276.436.533c.08.093.16.186.24.275.156.173.314.336.473.494.069.069.138.142.208.208.229.217.46.422.694.608l.013.01c.228.18.458.342.69.492.076.049.152.091.229.136.162.1.325.189.489.27.088.044.177.084.266.123q.236.1.473.187c.088.031.175.062.263.088.045.013.091.02.136.032V49.908H26.659Q26.88,50.6,27.116,51.265Z" transform="translate(-6.051 -0.708)"/><path class="a" d="M46.644,50.339c-.1.316-.2.626-.3.933s-.2.583-.3.868c-.108.3-.219.6-.332.894-.1.272-.209.542-.316.805-.118.289-.239.571-.362.85-.11.251-.22.5-.333.744-.127.273-.258.537-.39.8-.116.231-.231.463-.35.686-.136.256-.276.5-.416.745-.121.211-.241.424-.365.627-.144.237-.293.462-.441.687-.127.192-.252.387-.381.571-.152.217-.309.421-.465.626-.13.172-.26.347-.392.51-.161.2-.325.38-.489.565-.106.12-.209.251-.316.366A30.757,30.757,0,0,0,58.471,49.908H46.783C46.739,50.056,46.689,50.194,46.644,50.339Z" transform="translate(-2.724 -0.708)"/><path class="a" d="M63.271,36.085A30.9,30.9,0,0,1,58.954,50.5H46.2c.124-.495.21-1.014.322-1.509.1-.445.2-.878.284-1.336.2-1.039.359-2.09.507-3.167.037-.272.087-.532.124-.816.173-1.348.3-2.734.4-4.119.025-.371.025-.73.049-1.1.037-.779.087-1.571.1-2.363Z" transform="translate(-1.42 -3.984)"/><path class="a" d="M46.521,23.776c.1.445.195.882.281,1.335.2,1.035.364,2.091.513,3.162.038.275.089.541.124.818q.256,2.031.392,4.123c.024.365.03.734.049,1.1.04.784.09,1.566.1,2.357H63.269a30.859,30.859,0,0,0-4.312-14.4H46.2C46.323,22.758,46.414,23.274,46.521,23.776Z" transform="translate(-1.42 -7.258)"/><path class="a" d="M58.476,22.339H46.787c-.049-.148-.1-.284-.148-.433-.087-.322-.2-.631-.3-.94-.1-.285-.2-.581-.3-.866l-.334-.891c-.1-.272-.21-.544-.309-.8-.124-.3-.247-.569-.371-.854q-.148-.371-.334-.742c-.124-.272-.247-.532-.383-.8-.111-.223-.235-.458-.346-.68-.136-.26-.285-.507-.421-.742-.124-.21-.235-.433-.359-.631-.148-.235-.3-.458-.445-.693-.124-.186-.247-.383-.383-.569-.148-.21-.309-.421-.458-.618-.136-.173-.26-.346-.4-.52-.161-.186-.322-.371-.495-.557-.1-.124-.21-.247-.309-.371A30.756,30.756,0,0,1,58.476,22.339Z" transform="translate(-2.724 -10.017)"/><path class="a" d="M26.744,48.983c-.1-.445-.195-.882-.281-1.335-.2-1.035-.364-2.091-.513-3.162-.038-.275-.089-.541-.124-.818q-.256-2.031-.392-4.123c-.024-.365-.03-.734-.049-1.1-.04-.784-.09-1.566-.1-2.357H10a30.843,30.843,0,0,0,4.311,14.4H27.061C26.943,50,26.851,49.485,26.744,48.983Z" transform="translate(-9.999 -3.983)"/><path class="a" d="M32.706,61.619A30.756,30.756,0,0,1,14.931,49.9H26.62c.037.148.087.284.136.433.1.322.2.631.3.94.1.285.2.581.3.866l.334.891c.111.272.21.544.322.8.111.3.235.569.359.854l.334.742c.124.272.26.532.4.8.111.223.223.458.346.68q.2.39.408.742c.124.21.247.433.371.631.148.235.3.458.445.693.124.186.247.383.371.569.161.21.309.421.47.618.124.173.26.346.4.52l.482.557C32.483,61.371,32.595,61.495,32.706,61.619Z" transform="translate(-8.831 -0.709)"/><path class="a" d="M27.059,22.265c-.111.495-.21,1.014-.309,1.509-.1.445-.2.891-.285,1.336-.2,1.039-.371,2.09-.52,3.167-.037.272-.087.532-.124.816-.161,1.348-.3,2.734-.383,4.119-.025.371-.037.742-.05,1.1-.037.792-.087,1.571-.111,2.363H10a30.883,30.883,0,0,1,4.3-14.411Z" transform="translate(-9.999 -7.259)"/><path class="a" d="M26.757,21.9c.1-.316.2-.626.3-.933s.2-.582.3-.867c.109-.305.22-.6.334-.9.1-.27.207-.538.314-.8.119-.291.24-.573.363-.853.11-.251.22-.5.333-.743.127-.273.258-.537.39-.8.116-.231.231-.463.35-.686.136-.255.276-.5.415-.744.121-.212.242-.425.366-.629.144-.236.292-.46.439-.685.127-.193.253-.388.382-.572.152-.216.307-.419.462-.623.132-.173.262-.35.4-.515.158-.194.32-.374.482-.556.108-.122.213-.256.322-.372A30.76,30.76,0,0,0,14.93,22.334H26.618C26.663,22.187,26.712,22.049,26.757,21.9Z" transform="translate(-8.831 -10.016)"/></g></g></svg>