<svg xmlns="http://www.w3.org/2000/svg" width="34.563" height="24.276" viewBox="0 0 34.563 24.276"><defs><style>.a{fill:#fff;}</style></defs><path class="a" d="M985.833,1371.94q0,2.887-.04,3.6-.159,2.335-.316,3.4a8.322,8.322,0,0,1-.514,1.938,3.875,3.875,0,0,1-.949,1.5,4.556,4.556,0,0,1-2.412,1.266q-7.514.554-16.016.4-4.983-.08-7.1-.179a23.722,23.722,0,0,1-3.144-.3,4.626,4.626,0,0,1-2.333-1.226,5.372,5.372,0,0,1-1.107-2.174,7.379,7.379,0,0,1-.3-1.226q-.1-.633-.178-1.9a81.6,81.6,0,0,1,0-10.2l.237-1.938a9.181,9.181,0,0,1,.435-1.9,4.339,4.339,0,0,1,1.028-1.582,5.05,5.05,0,0,1,2.333-1.186,40.151,40.151,0,0,1,4.8-.316q3.816-.119,8.285-.119t8.285.139q3.816.14,4.844.3a4.813,4.813,0,0,1,1.522.593,3.908,3.908,0,0,1,1.167,1.028,7.182,7.182,0,0,1,.909,2.135,11.991,11.991,0,0,1,.4,2.254q0,.2.119,2.1C985.818,1368.816,985.833,1370.022,985.833,1371.94Zm-15.937,1.938q3.123-1.581,4.429-2.293l-9.293-4.9v9.768Q966.653,1375.544,969.9,1373.878Z" transform="translate(-951.27 -1359.8)"/></svg>